<svg height="200px" width="200px" version="1.1" id="Layer_1" xmlns="http://www.w3.org/2000/svg" xmlns:xlink="http://www.w3.org/1999/xlink" viewBox="0 0 512.002 512.002" xml:space="preserve" fill="#000000"><g id="SVGRepo_bgCarrier" stroke-width="0"></g><g id="SVGRepo_tracerCarrier" stroke-linecap="round" stroke-linejoin="round"></g><g id="SVGRepo_iconCarrier"> <circle style="fill:#e15ba9;" cx="256.001" cy="256.001" r="256.001"></circle> <path style="fill:#ba17a4;" d="M240.674,415.788l-6.735-58.207l42.099-42.645l-81.378-81.378l115.706-133.87L508.579,297.9 c-16.126,97.94-87.839,177.153-181.648,204.145l-86.237-86.237L240.674,415.788z"></path> <circle style="fill:#E6E6E6;" cx="243.122" cy="153.026" r="85.829"></circle> <circle style="fill:#ABABAB;" cx="235.021" cy="130.099" r="49.934"></circle> <circle style="fill:#B3B3B3;" cx="234.157" cy="128.583" r="48.697"></circle> <circle style="fill:#666666;" cx="230.814" cy="120.923" r="25.297"></circle> <path style="fill:#EF001C;" d="M292.057,179.228c10.811,4.532,11.867,7.626,14.798,18.966c0.983,3.804-2.821,9.046-11.176,3.494 c-9.829-6.534-15.453-9.538-15.453-9.538s9.811,15.016,12.085,21.477c1.092,3.094-1.383,7.535-5.224,7.026 c-7.662-1.019-16.418-15.78-19.639-16.763c-2.603-0.801,10.084,27.229-1.419,25.882c-4.04-0.473-14.106-22.224-15.016-21.932 c-0.929,0.273,2.039,14.306,2.221,18.729c0.182,4.423-2.384,7.008-6.935,6.006c-4.55-1.001-10.993-23.57-14.507-20.622 c-0.492,0.419,6.043,16.873,0.345,18.493c-5.697,1.62-12.832-7.68-18.292-15.926c-5.46-8.264-19.165-11.066-19.165-11.066 s13.687,6.425,16.327,16.181c2.639,9.737,5.37,10.339,5.37,10.339s-23.644-8.027-28.976-19.512 c-5.333-11.467,7.699-16.855,7.699-16.855s-5.898-1.856-9.629,3.823c-3.731,5.679-7.008,4.969-7.008,4.969 s-0.364-14.979,1.711-21.786c2.057-6.807,1.146-7.008,1.146-7.008s-7.062,7.808-7.863,15.854c-0.801,8.045-2.348,6.37-2.348,6.37 s-4.732-5.041-3.004-15.071c1.711-10.028,5.37-14.489,5.37-14.489c-29.286,20.458,13.651,68.619,40.716,79.375 c53.421,21.222,72.532,12.414,71.203,34.273c-1.347,21.86-67.199,40.752-59.427,97.832c7.772,57.08,58.462,68.637,61.029,66.907 c3.058-2.202-44.228-15.162-46.576-60.355c-2.348-45.212,65.87-72.205,81.414-92.281c23.443-30.269-9.01-53.475,3.695-90.497 c7.371-21.495,3.185-55.113,3.185-55.113c-1.493,6.989-1.984,29.322-5.206,26.847c-3.785-6.133-11.758-16.217-15.125-15.635 c5.587,6.297,9.883,17.546,11.886,29.177C316.537,197.538,299.792,175.041,292.057,179.228z"></path> <circle style="fill:#333333;" cx="230.714" cy="118.233" r="13.011"></circle> <g> <circle style="fill:#FDFDFD;" cx="226.749" cy="107.452" r="3.935"></circle> <circle style="fill:#FDFDFD;" cx="231.879" cy="128.553" r="2.352"></circle> </g> <circle style="fill:#222222;" cx="229.891" cy="116.798" r="5.082"></circle> </g></svg>